<svg width="16" height="16" viewBox="0 0 16 16" fill="none" xmlns="http://www.w3.org/2000/svg">
<path d="M8 2C9.5913 2 11.1174 2.63214 12.2426 3.75736C13.3679 4.88258 14 6.4087 14 8C14 9.5913 13.3679 11.1174 12.2426 12.2426C11.1174 13.3679 9.5913 14 8 14C6.4087 14 4.88258 13.3679 3.75736 12.2426C2.63214 11.1174 2 9.5913 2 8C2 6.4087 2.63214 4.88258 3.75736 3.75736C4.88258 2.63214 6.4087 2 8 2ZM7.25257 9.18371L5.91971 7.85C5.87193 7.80222 5.81521 7.76431 5.75277 7.73845C5.69034 7.71259 5.62343 7.69928 5.55586 7.69928C5.48828 7.69928 5.42137 7.71259 5.35894 7.73845C5.29651 7.76431 5.23978 7.80222 5.192 7.85C5.0955 7.9465 5.04129 8.07738 5.04129 8.21386C5.04129 8.35033 5.0955 8.48121 5.192 8.57771L6.88914 10.2749C6.93679 10.3229 6.99347 10.361 7.05592 10.387C7.11837 10.413 7.18535 10.4264 7.253 10.4264C7.32065 10.4264 7.38763 10.413 7.45008 10.387C7.51253 10.361 7.56921 10.3229 7.61686 10.2749L11.1311 6.75971C11.1796 6.71213 11.2181 6.65543 11.2445 6.59288C11.2709 6.53034 11.2846 6.46318 11.2849 6.3953C11.2853 6.32741 11.2721 6.26013 11.2463 6.19734C11.2205 6.13455 11.1825 6.0775 11.1345 6.02946C11.0866 5.98143 11.0296 5.94337 10.9668 5.91748C10.904 5.89159 10.8368 5.87839 10.7689 5.87862C10.701 5.87886 10.6338 5.89253 10.5712 5.91886C10.5087 5.94518 10.4519 5.98364 10.4043 6.032L7.25257 9.18371Z" fill="#3D9436"/>
</svg>
