<svg width="92" height="92" viewBox="0 0 92 92" fill="none" xmlns="http://www.w3.org/2000/svg">
<g filter="url(#filter0_f_1363_18522)">
<rect x="29" y="25" width="34" height="34" rx="17" fill="#D8EBFF"/>
</g>
<g filter="url(#filter1_d_1363_18522)">
<rect x="20" y="16" width="52" height="52" rx="26" fill="#FD9018"/>
<path d="M46 48.75C49.3137 48.75 52 46.0637 52 42.75V41.25M46 48.75C42.6863 48.75 40 46.0637 40 42.75V41.25M46 48.75V52.5M42.25 52.5H49.75M46 45.75C44.3431 45.75 43 44.4069 43 42.75V34.5C43 32.8431 44.3431 31.5 46 31.5C47.6569 31.5 49 32.8431 49 34.5V42.75C49 44.4069 47.6569 45.75 46 45.75Z" stroke="white" stroke-width="1.5" stroke-linecap="round" stroke-linejoin="round"/>
</g>
<defs>
<filter id="filter0_f_1363_18522" x="23" y="19" width="46" height="46" filterUnits="userSpaceOnUse" color-interpolation-filters="sRGB">
<feFlood flood-opacity="0" result="BackgroundImageFix"/>
<feBlend mode="normal" in="SourceGraphic" in2="BackgroundImageFix" result="shape"/>
<feGaussianBlur stdDeviation="3" result="effect1_foregroundBlur_1363_18522"/>
</filter>
<filter id="filter1_d_1363_18522" x="0" y="0" width="92" height="92" filterUnits="userSpaceOnUse" color-interpolation-filters="sRGB">
<feFlood flood-opacity="0" result="BackgroundImageFix"/>
<feColorMatrix in="SourceAlpha" type="matrix" values="0 0 0 0 0 0 0 0 0 0 0 0 0 0 0 0 0 0 127 0" result="hardAlpha"/>
<feOffset dy="4"/>
<feGaussianBlur stdDeviation="10"/>
<feComposite in2="hardAlpha" operator="out"/>
<feColorMatrix type="matrix" values="0 0 0 0 1 0 0 0 0 1 0 0 0 0 1 0 0 0 0.5 0"/>
<feBlend mode="normal" in2="BackgroundImageFix" result="effect1_dropShadow_1363_18522"/>
<feBlend mode="normal" in="SourceGraphic" in2="effect1_dropShadow_1363_18522" result="shape"/>
</filter>
</defs>
</svg>
