<svg width="24" height="24" viewBox="0 0 24 24" fill="none" xmlns="http://www.w3.org/2000/svg">
<path d="M11.637 3.34648C11.8291 2.88451 12.4836 2.88451 12.6757 3.34648L14.8017 8.45794C14.8827 8.6527 15.0659 8.78577 15.2761 8.80262L20.7944 9.24502C21.2931 9.285 21.4953 9.90741 21.1153 10.2329L16.911 13.8344C16.7508 13.9716 16.6809 14.1869 16.7298 14.3921L18.0143 19.7769C18.1304 20.2636 17.6009 20.6483 17.1739 20.3875L12.4496 17.5019C12.2695 17.3919 12.0432 17.3919 11.8631 17.5019L7.13876 20.3875C6.71176 20.6483 6.18231 20.2636 6.2984 19.7769L7.58289 14.3921C7.63183 14.1869 7.56187 13.9716 7.40168 13.8344L3.19736 10.2329C2.81737 9.90741 3.0196 9.285 3.51834 9.24502L9.03659 8.80262C9.24685 8.78577 9.43 8.6527 9.51101 8.45794L11.637 3.34648Z" stroke="#666666" stroke-width="1.5" stroke-linecap="round" stroke-linejoin="round"/>
</svg>
