<svg width="52" height="43" viewBox="0 0 52 43" fill="none" xmlns="http://www.w3.org/2000/svg">
<g id="Group 1">
<path id="Rectangle 4 (Stroke)" fill-rule="evenodd" clip-rule="evenodd" d="M0.400391 5.4002C0.400391 2.52832 2.72851 0.200195 5.60039 0.200195H46.4004C49.2723 0.200195 51.6004 2.52831 51.6004 5.4002V37.4002C51.6004 40.2721 49.2723 42.6002 46.4004 42.6002H5.60039C2.72851 42.6002 0.400391 40.2721 0.400391 37.4002V5.4002ZM5.60039 2.6002C4.05399 2.6002 2.80039 3.8538 2.80039 5.4002V37.4002C2.80039 38.9466 4.05399 40.2002 5.60039 40.2002H46.4004C47.9468 40.2002 49.2004 38.9466 49.2004 37.4002V5.4002C49.2004 3.8538 47.9468 2.6002 46.4004 2.6002H5.60039Z" fill="#B8B8B8"/>
<circle id="Ellipse 1" cx="12.4012" cy="11.4002" r="5.2" fill="#B8B8B8"/>
<path id="Vector 2" d="M7.20117 33.7336V30.8906C7.20117 30.4486 7.37677 30.0247 7.68933 29.7121L14.4774 22.924C15.1065 22.2949 16.1188 22.2709 16.7771 22.8693L18.8417 24.7463C19.4933 25.3386 20.4933 25.3219 21.1247 24.708L33.2229 12.9458C33.8763 12.3106 34.9188 12.3179 35.5632 12.9623L45.113 22.5121C45.4256 22.8247 45.6012 23.2486 45.6012 23.6906V33.7336C45.6012 34.6541 44.855 35.4003 43.9345 35.4003H8.86784C7.94736 35.4003 7.20117 34.6541 7.20117 33.7336Z" fill="#B8B8B8"/>
</g>
</svg>
