<svg width="24" height="24" viewBox="0 0 24 24" fill="none" xmlns="http://www.w3.org/2000/svg">
<path d="M12 3C14.3869 3 16.6761 3.94821 18.364 5.63604C20.0518 7.32387 21 9.61305 21 12C21 14.3869 20.0518 16.6761 18.364 18.364C16.6761 20.0518 14.3869 21 12 21C9.61305 21 7.32387 20.0518 5.63604 18.364C3.94821 16.6761 3 14.3869 3 12C3 9.61305 3.94821 7.32387 5.63604 5.63604C7.32387 3.94821 9.61305 3 12 3ZM10.8789 13.7756L8.87957 11.775C8.8079 11.7033 8.72281 11.6465 8.62916 11.6077C8.53552 11.5689 8.43515 11.5489 8.33379 11.5489C8.23242 11.5489 8.13205 11.5689 8.03841 11.6077C7.94476 11.6465 7.85967 11.7033 7.788 11.775C7.64325 11.9198 7.56193 12.1161 7.56193 12.3208C7.56193 12.5255 7.64325 12.7218 7.788 12.8666L10.3337 15.4123C10.4052 15.4843 10.4902 15.5415 10.5839 15.5805C10.6776 15.6195 10.778 15.6396 10.8795 15.6396C10.981 15.6396 11.0814 15.6195 11.1751 15.5805C11.2688 15.5415 11.3538 15.4843 11.4253 15.4123L16.6967 10.1396C16.7693 10.0682 16.8271 9.98314 16.8667 9.88933C16.9063 9.79551 16.927 9.69478 16.9274 9.59295C16.9279 9.49111 16.9082 9.3902 16.8695 9.29601C16.8308 9.20183 16.7738 9.11625 16.7018 9.0442C16.6298 8.97215 16.5443 8.91506 16.4502 8.87623C16.3561 8.83739 16.2552 8.81758 16.1533 8.81793C16.0515 8.81829 15.9507 8.8388 15.8569 8.87829C15.763 8.91777 15.6779 8.97545 15.6064 9.048L10.8789 13.7756Z" fill="#3D9436"/>
</svg>
