<svg width="16" height="16" viewBox="0 0 16 16" fill="none" xmlns="http://www.w3.org/2000/svg">
<path d="M2 4.76923C2 9.86724 6.13276 14 11.2308 14H12.6154C13.3801 14 14 13.3801 14 12.6154V11.7713C14 11.4536 13.7838 11.1767 13.4756 11.0997L10.7536 10.4192C10.4834 10.3516 10.199 10.4526 10.0319 10.6754L9.43483 11.4715C9.26155 11.7025 8.96185 11.8047 8.69067 11.7054C6.65563 10.9599 5.0401 9.34437 4.29462 7.30933C4.19529 7.03815 4.29745 6.73845 4.52849 6.56517L5.32457 5.96811C5.5474 5.80099 5.64838 5.51659 5.58082 5.24636L4.90033 2.5244C4.82328 2.21621 4.54637 2 4.22869 2H3.38462C2.61991 2 2 2.61991 2 3.38462V4.76923Z" stroke="#666666" stroke-linecap="round" stroke-linejoin="round"/>
</svg>
