<svg width="17" height="18" viewBox="0 0 17 18" fill="none" xmlns="http://www.w3.org/2000/svg">
<path d="M14.9759 9.80957V12.2381C14.9759 13.2905 12.4389 14.6667 9.30924 14.6667C6.17963 14.6667 3.64258 13.2905 3.64258 12.2381V10.2143" stroke="black" stroke-linecap="round" stroke-linejoin="round"/>
<path d="M3.88086 10.4239C4.5811 11.3533 6.74657 12.2251 9.30953 12.2251C12.4391 12.2251 14.9762 10.925 14.9762 9.80789C14.9762 9.1805 14.1772 8.49322 12.9232 8.01074" stroke="black" stroke-linecap="round" stroke-linejoin="round"/>
<path d="M12.5482 5.76221V8.19078C12.5482 9.24316 10.0111 10.6193 6.88151 10.6193C3.75189 10.6193 1.21484 9.24316 1.21484 8.19078V5.76221" stroke="black" stroke-linecap="round" stroke-linejoin="round"/>
<path fill-rule="evenodd" clip-rule="evenodd" d="M6.88151 8.17769C10.0111 8.17769 12.5482 6.87759 12.5482 5.76045C12.5482 4.6425 10.0111 3.3335 6.88151 3.3335C3.75189 3.3335 1.21484 4.6425 1.21484 5.76045C1.21484 6.87759 3.75189 8.17769 6.88151 8.17769Z" stroke="black" stroke-linecap="round" stroke-linejoin="round"/>
</svg>
