<svg width="14" height="14" viewBox="0 0 14 14" fill="none" xmlns="http://www.w3.org/2000/svg">
<path d="M6.75799 1.23099C6.88609 0.923004 7.32238 0.923004 7.45048 1.23099L8.8678 4.63863C8.9218 4.76846 9.0439 4.85718 9.18407 4.86842L12.8629 5.16335C13.1954 5.19 13.3302 5.60494 13.0769 5.82194L10.274 8.22291C10.1672 8.31439 10.1206 8.45793 10.1532 8.59472L11.0095 12.1846C11.0869 12.5091 10.734 12.7655 10.4493 12.5917L7.2997 10.6679C7.1797 10.5946 7.02877 10.5946 6.90876 10.6679L3.75917 12.5917C3.47451 12.7655 3.12154 12.5091 3.19893 12.1846L4.05526 8.59472C4.08789 8.45793 4.04125 8.31439 3.93445 8.22291L1.13157 5.82194C0.878246 5.60494 1.01307 5.19 1.34556 5.16335L5.02439 4.86842C5.16457 4.85718 5.28667 4.76847 5.34067 4.63863L6.75799 1.23099Z" stroke="#666666" stroke-linecap="round" stroke-linejoin="round"/>
</svg>
